<?xml version="1.0" encoding="utf-8" standalone="no"?>
<!DOCTYPE svg PUBLIC "-//W3C//DTD SVG 1.1//EN"
  "http://www.w3.org/Graphics/SVG/1.1/DTD/svg11.dtd">
<!-- Created with matplotlib (https://matplotlib.org/) -->
<svg height="360pt" version="1.1" viewBox="0 0 900 360" width="900pt" xmlns="http://www.w3.org/2000/svg" xmlns:xlink="http://www.w3.org/1999/xlink">
 <defs>
  <style type="text/css">
*{stroke-linecap:butt;stroke-linejoin:round;}
  </style>
 </defs>
 <g id="figure_1">
  <g id="patch_1">
   <path d="M 0 360 
L 900 360 
L 900 0 
L 0 0 
z
" style="fill:none;"/>
  </g>
  <g id="axes_1">
   <g id="patch_2">
    <path d="M 330.675 318.2 
L 885.7 318.2 
L 885.7 14.3 
L 330.675 14.3 
z
" style="fill:none;"/>
   </g>
   <g id="matplotlib.axis_1">
    <g id="xtick_1">
     <g id="line2d_1">
      <path clip-path="url(#p52c440dcf9)" d="M 386.284529 318.2 
L 386.284529 14.3 
" style="fill:none;stroke:#cccccc;stroke-linecap:round;stroke-width:0.8;"/>
     </g>
     <g id="text_1">
      <!-- −0.2 -->
      <defs>
       <path d="M 10.59375 35.5 
L 73.1875 35.5 
L 73.1875 27.203125 
L 10.59375 27.203125 
z
" id="DejaVuSans-8722"/>
       <path d="M 31.78125 66.40625 
Q 24.171875 66.40625 20.328125 58.90625 
Q 16.5 51.421875 16.5 36.375 
Q 16.5 21.390625 20.328125 13.890625 
Q 24.171875 6.390625 31.78125 6.390625 
Q 39.453125 6.390625 43.28125 13.890625 
Q 47.125 21.390625 47.125 36.375 
Q 47.125 51.421875 43.28125 58.90625 
Q 39.453125 66.40625 31.78125 66.40625 
z
M 31.78125 74.21875 
Q 44.046875 74.21875 50.515625 64.515625 
Q 56.984375 54.828125 56.984375 36.375 
Q 56.984375 17.96875 50.515625 8.265625 
Q 44.046875 -1.421875 31.78125 -1.421875 
Q 19.53125 -1.421875 13.0625 8.265625 
Q 6.59375 17.96875 6.59375 36.375 
Q 6.59375 54.828125 13.0625 64.515625 
Q 19.53125 74.21875 31.78125 74.21875 
z
" id="DejaVuSans-48"/>
       <path d="M 10.6875 12.40625 
L 21 12.40625 
L 21 0 
L 10.6875 0 
z
" id="DejaVuSans-46"/>
       <path d="M 19.1875 8.296875 
L 53.609375 8.296875 
L 53.609375 0 
L 7.328125 0 
L 7.328125 8.296875 
Q 12.9375 14.109375 22.625 23.890625 
Q 32.328125 33.6875 34.8125 36.53125 
Q 39.546875 41.84375 41.421875 45.53125 
Q 43.3125 49.21875 43.3125 52.78125 
Q 43.3125 58.59375 39.234375 62.25 
Q 35.15625 65.921875 28.609375 65.921875 
Q 23.96875 65.921875 18.8125 64.3125 
Q 13.671875 62.703125 7.8125 59.421875 
L 7.8125 69.390625 
Q 13.765625 71.78125 18.9375 73 
Q 24.125 74.21875 28.421875 74.21875 
Q 39.75 74.21875 46.484375 68.546875 
Q 53.21875 62.890625 53.21875 53.421875 
Q 53.21875 48.921875 51.53125 44.890625 
Q 49.859375 40.875 45.40625 35.40625 
Q 44.1875 33.984375 37.640625 27.21875 
Q 31.109375 20.453125 19.1875 8.296875 
z
" id="DejaVuSans-50"/>
      </defs>
      <g style="fill:#262626;" transform="translate(374.143123 332.798437)scale(0.1 -0.1)">
       <use xlink:href="#DejaVuSans-8722"/>
       <use x="83.789062" xlink:href="#DejaVuSans-48"/>
       <use x="147.412109" xlink:href="#DejaVuSans-46"/>
       <use x="179.199219" xlink:href="#DejaVuSans-50"/>
      </g>
     </g>
    </g>
    <g id="xtick_2">
     <g id="line2d_2">
      <path clip-path="url(#p52c440dcf9)" d="M 465.315706 318.2 
L 465.315706 14.3 
" style="fill:none;stroke:#cccccc;stroke-linecap:round;stroke-width:0.8;"/>
     </g>
     <g id="text_2">
      <!-- 0.0 -->
      <g style="fill:#262626;" transform="translate(457.364144 332.798437)scale(0.1 -0.1)">
       <use xlink:href="#DejaVuSans-48"/>
       <use x="63.623047" xlink:href="#DejaVuSans-46"/>
       <use x="95.410156" xlink:href="#DejaVuSans-48"/>
      </g>
     </g>
    </g>
    <g id="xtick_3">
     <g id="line2d_3">
      <path clip-path="url(#p52c440dcf9)" d="M 544.346883 318.2 
L 544.346883 14.3 
" style="fill:none;stroke:#cccccc;stroke-linecap:round;stroke-width:0.8;"/>
     </g>
     <g id="text_3">
      <!-- 0.2 -->
      <g style="fill:#262626;" transform="translate(536.395321 332.798437)scale(0.1 -0.1)">
       <use xlink:href="#DejaVuSans-48"/>
       <use x="63.623047" xlink:href="#DejaVuSans-46"/>
       <use x="95.410156" xlink:href="#DejaVuSans-50"/>
      </g>
     </g>
    </g>
    <g id="xtick_4">
     <g id="line2d_4">
      <path clip-path="url(#p52c440dcf9)" d="M 623.37806 318.2 
L 623.37806 14.3 
" style="fill:none;stroke:#cccccc;stroke-linecap:round;stroke-width:0.8;"/>
     </g>
     <g id="text_4">
      <!-- 0.4 -->
      <defs>
       <path d="M 37.796875 64.3125 
L 12.890625 25.390625 
L 37.796875 25.390625 
z
M 35.203125 72.90625 
L 47.609375 72.90625 
L 47.609375 25.390625 
L 58.015625 25.390625 
L 58.015625 17.1875 
L 47.609375 17.1875 
L 47.609375 0 
L 37.796875 0 
L 37.796875 17.1875 
L 4.890625 17.1875 
L 4.890625 26.703125 
z
" id="DejaVuSans-52"/>
      </defs>
      <g style="fill:#262626;" transform="translate(615.426498 332.798437)scale(0.1 -0.1)">
       <use xlink:href="#DejaVuSans-48"/>
       <use x="63.623047" xlink:href="#DejaVuSans-46"/>
       <use x="95.410156" xlink:href="#DejaVuSans-52"/>
      </g>
     </g>
    </g>
    <g id="xtick_5">
     <g id="line2d_5">
      <path clip-path="url(#p52c440dcf9)" d="M 702.409237 318.2 
L 702.409237 14.3 
" style="fill:none;stroke:#cccccc;stroke-linecap:round;stroke-width:0.8;"/>
     </g>
     <g id="text_5">
      <!-- 0.6 -->
      <defs>
       <path d="M 33.015625 40.375 
Q 26.375 40.375 22.484375 35.828125 
Q 18.609375 31.296875 18.609375 23.390625 
Q 18.609375 15.53125 22.484375 10.953125 
Q 26.375 6.390625 33.015625 6.390625 
Q 39.65625 6.390625 43.53125 10.953125 
Q 47.40625 15.53125 47.40625 23.390625 
Q 47.40625 31.296875 43.53125 35.828125 
Q 39.65625 40.375 33.015625 40.375 
z
M 52.59375 71.296875 
L 52.59375 62.3125 
Q 48.875 64.0625 45.09375 64.984375 
Q 41.3125 65.921875 37.59375 65.921875 
Q 27.828125 65.921875 22.671875 59.328125 
Q 17.53125 52.734375 16.796875 39.40625 
Q 19.671875 43.65625 24.015625 45.921875 
Q 28.375 48.1875 33.59375 48.1875 
Q 44.578125 48.1875 50.953125 41.515625 
Q 57.328125 34.859375 57.328125 23.390625 
Q 57.328125 12.15625 50.6875 5.359375 
Q 44.046875 -1.421875 33.015625 -1.421875 
Q 20.359375 -1.421875 13.671875 8.265625 
Q 6.984375 17.96875 6.984375 36.375 
Q 6.984375 53.65625 15.1875 63.9375 
Q 23.390625 74.21875 37.203125 74.21875 
Q 40.921875 74.21875 44.703125 73.484375 
Q 48.484375 72.75 52.59375 71.296875 
z
" id="DejaVuSans-54"/>
      </defs>
      <g style="fill:#262626;" transform="translate(694.457674 332.798437)scale(0.1 -0.1)">
       <use xlink:href="#DejaVuSans-48"/>
       <use x="63.623047" xlink:href="#DejaVuSans-46"/>
       <use x="95.410156" xlink:href="#DejaVuSans-54"/>
      </g>
     </g>
    </g>
    <g id="xtick_6">
     <g id="line2d_6">
      <path clip-path="url(#p52c440dcf9)" d="M 781.440414 318.2 
L 781.440414 14.3 
" style="fill:none;stroke:#cccccc;stroke-linecap:round;stroke-width:0.8;"/>
     </g>
     <g id="text_6">
      <!-- 0.8 -->
      <defs>
       <path d="M 31.78125 34.625 
Q 24.75 34.625 20.71875 30.859375 
Q 16.703125 27.09375 16.703125 20.515625 
Q 16.703125 13.921875 20.71875 10.15625 
Q 24.75 6.390625 31.78125 6.390625 
Q 38.8125 6.390625 42.859375 10.171875 
Q 46.921875 13.96875 46.921875 20.515625 
Q 46.921875 27.09375 42.890625 30.859375 
Q 38.875 34.625 31.78125 34.625 
z
M 21.921875 38.8125 
Q 15.578125 40.375 12.03125 44.71875 
Q 8.5 49.078125 8.5 55.328125 
Q 8.5 64.0625 14.71875 69.140625 
Q 20.953125 74.21875 31.78125 74.21875 
Q 42.671875 74.21875 48.875 69.140625 
Q 55.078125 64.0625 55.078125 55.328125 
Q 55.078125 49.078125 51.53125 44.71875 
Q 48 40.375 41.703125 38.8125 
Q 48.828125 37.15625 52.796875 32.3125 
Q 56.78125 27.484375 56.78125 20.515625 
Q 56.78125 9.90625 50.3125 4.234375 
Q 43.84375 -1.421875 31.78125 -1.421875 
Q 19.734375 -1.421875 13.25 4.234375 
Q 6.78125 9.90625 6.78125 20.515625 
Q 6.78125 27.484375 10.78125 32.3125 
Q 14.796875 37.15625 21.921875 38.8125 
z
M 18.3125 54.390625 
Q 18.3125 48.734375 21.84375 45.5625 
Q 25.390625 42.390625 31.78125 42.390625 
Q 38.140625 42.390625 41.71875 45.5625 
Q 45.3125 48.734375 45.3125 54.390625 
Q 45.3125 60.0625 41.71875 63.234375 
Q 38.140625 66.40625 31.78125 66.40625 
Q 25.390625 66.40625 21.84375 63.234375 
Q 18.3125 60.0625 18.3125 54.390625 
z
" id="DejaVuSans-56"/>
      </defs>
      <g style="fill:#262626;" transform="translate(773.488851 332.798437)scale(0.1 -0.1)">
       <use xlink:href="#DejaVuSans-48"/>
       <use x="63.623047" xlink:href="#DejaVuSans-46"/>
       <use x="95.410156" xlink:href="#DejaVuSans-56"/>
      </g>
     </g>
    </g>
    <g id="xtick_7">
     <g id="line2d_7">
      <path clip-path="url(#p52c440dcf9)" d="M 860.471591 318.2 
L 860.471591 14.3 
" style="fill:none;stroke:#cccccc;stroke-linecap:round;stroke-width:0.8;"/>
     </g>
     <g id="text_7">
      <!-- 1.0 -->
      <defs>
       <path d="M 12.40625 8.296875 
L 28.515625 8.296875 
L 28.515625 63.921875 
L 10.984375 60.40625 
L 10.984375 69.390625 
L 28.421875 72.90625 
L 38.28125 72.90625 
L 38.28125 8.296875 
L 54.390625 8.296875 
L 54.390625 0 
L 12.40625 0 
z
" id="DejaVuSans-49"/>
      </defs>
      <g style="fill:#262626;" transform="translate(852.520028 332.798437)scale(0.1 -0.1)">
       <use xlink:href="#DejaVuSans-49"/>
       <use x="63.623047" xlink:href="#DejaVuSans-46"/>
       <use x="95.410156" xlink:href="#DejaVuSans-48"/>
      </g>
     </g>
    </g>
    <g id="text_8">
     <!-- Pearson correlation coefficient -->
     <defs>
      <path d="M 19.671875 64.796875 
L 19.671875 37.40625 
L 32.078125 37.40625 
Q 38.96875 37.40625 42.71875 40.96875 
Q 46.484375 44.53125 46.484375 51.125 
Q 46.484375 57.671875 42.71875 61.234375 
Q 38.96875 64.796875 32.078125 64.796875 
z
M 9.8125 72.90625 
L 32.078125 72.90625 
Q 44.34375 72.90625 50.609375 67.359375 
Q 56.890625 61.8125 56.890625 51.125 
Q 56.890625 40.328125 50.609375 34.8125 
Q 44.34375 29.296875 32.078125 29.296875 
L 19.671875 29.296875 
L 19.671875 0 
L 9.8125 0 
z
" id="DejaVuSans-80"/>
      <path d="M 56.203125 29.59375 
L 56.203125 25.203125 
L 14.890625 25.203125 
Q 15.484375 15.921875 20.484375 11.0625 
Q 25.484375 6.203125 34.421875 6.203125 
Q 39.59375 6.203125 44.453125 7.46875 
Q 49.3125 8.734375 54.109375 11.28125 
L 54.109375 2.78125 
Q 49.265625 0.734375 44.1875 -0.34375 
Q 39.109375 -1.421875 33.890625 -1.421875 
Q 20.796875 -1.421875 13.15625 6.1875 
Q 5.515625 13.8125 5.515625 26.8125 
Q 5.515625 40.234375 12.765625 48.109375 
Q 20.015625 56 32.328125 56 
Q 43.359375 56 49.78125 48.890625 
Q 56.203125 41.796875 56.203125 29.59375 
z
M 47.21875 32.234375 
Q 47.125 39.59375 43.09375 43.984375 
Q 39.0625 48.390625 32.421875 48.390625 
Q 24.90625 48.390625 20.390625 44.140625 
Q 15.875 39.890625 15.1875 32.171875 
z
" id="DejaVuSans-101"/>
      <path d="M 34.28125 27.484375 
Q 23.390625 27.484375 19.1875 25 
Q 14.984375 22.515625 14.984375 16.5 
Q 14.984375 11.71875 18.140625 8.90625 
Q 21.296875 6.109375 26.703125 6.109375 
Q 34.1875 6.109375 38.703125 11.40625 
Q 43.21875 16.703125 43.21875 25.484375 
L 43.21875 27.484375 
z
M 52.203125 31.203125 
L 52.203125 0 
L 43.21875 0 
L 43.21875 8.296875 
Q 40.140625 3.328125 35.546875 0.953125 
Q 30.953125 -1.421875 24.3125 -1.421875 
Q 15.921875 -1.421875 10.953125 3.296875 
Q 6 8.015625 6 15.921875 
Q 6 25.140625 12.171875 29.828125 
Q 18.359375 34.515625 30.609375 34.515625 
L 43.21875 34.515625 
L 43.21875 35.40625 
Q 43.21875 41.609375 39.140625 45 
Q 35.0625 48.390625 27.6875 48.390625 
Q 23 48.390625 18.546875 47.265625 
Q 14.109375 46.140625 10.015625 43.890625 
L 10.015625 52.203125 
Q 14.9375 54.109375 19.578125 55.046875 
Q 24.21875 56 28.609375 56 
Q 40.484375 56 46.34375 49.84375 
Q 52.203125 43.703125 52.203125 31.203125 
z
" id="DejaVuSans-97"/>
      <path d="M 41.109375 46.296875 
Q 39.59375 47.171875 37.8125 47.578125 
Q 36.03125 48 33.890625 48 
Q 26.265625 48 22.1875 43.046875 
Q 18.109375 38.09375 18.109375 28.8125 
L 18.109375 0 
L 9.078125 0 
L 9.078125 54.6875 
L 18.109375 54.6875 
L 18.109375 46.1875 
Q 20.953125 51.171875 25.484375 53.578125 
Q 30.03125 56 36.53125 56 
Q 37.453125 56 38.578125 55.875 
Q 39.703125 55.765625 41.0625 55.515625 
z
" id="DejaVuSans-114"/>
      <path d="M 44.28125 53.078125 
L 44.28125 44.578125 
Q 40.484375 46.53125 36.375 47.5 
Q 32.28125 48.484375 27.875 48.484375 
Q 21.1875 48.484375 17.84375 46.4375 
Q 14.5 44.390625 14.5 40.28125 
Q 14.5 37.15625 16.890625 35.375 
Q 19.28125 33.59375 26.515625 31.984375 
L 29.59375 31.296875 
Q 39.15625 29.25 43.1875 25.515625 
Q 47.21875 21.78125 47.21875 15.09375 
Q 47.21875 7.46875 41.1875 3.015625 
Q 35.15625 -1.421875 24.609375 -1.421875 
Q 20.21875 -1.421875 15.453125 -0.5625 
Q 10.6875 0.296875 5.421875 2 
L 5.421875 11.28125 
Q 10.40625 8.6875 15.234375 7.390625 
Q 20.0625 6.109375 24.8125 6.109375 
Q 31.15625 6.109375 34.5625 8.28125 
Q 37.984375 10.453125 37.984375 14.40625 
Q 37.984375 18.0625 35.515625 20.015625 
Q 33.0625 21.96875 24.703125 23.78125 
L 21.578125 24.515625 
Q 13.234375 26.265625 9.515625 29.90625 
Q 5.8125 33.546875 5.8125 39.890625 
Q 5.8125 47.609375 11.28125 51.796875 
Q 16.75 56 26.8125 56 
Q 31.78125 56 36.171875 55.265625 
Q 40.578125 54.546875 44.28125 53.078125 
z
" id="DejaVuSans-115"/>
      <path d="M 30.609375 48.390625 
Q 23.390625 48.390625 19.1875 42.75 
Q 14.984375 37.109375 14.984375 27.296875 
Q 14.984375 17.484375 19.15625 11.84375 
Q 23.34375 6.203125 30.609375 6.203125 
Q 37.796875 6.203125 41.984375 11.859375 
Q 46.1875 17.53125 46.1875 27.296875 
Q 46.1875 37.015625 41.984375 42.703125 
Q 37.796875 48.390625 30.609375 48.390625 
z
M 30.609375 56 
Q 42.328125 56 49.015625 48.375 
Q 55.71875 40.765625 55.71875 27.296875 
Q 55.71875 13.875 49.015625 6.21875 
Q 42.328125 -1.421875 30.609375 -1.421875 
Q 18.84375 -1.421875 12.171875 6.21875 
Q 5.515625 13.875 5.515625 27.296875 
Q 5.515625 40.765625 12.171875 48.375 
Q 18.84375 56 30.609375 56 
z
" id="DejaVuSans-111"/>
      <path d="M 54.890625 33.015625 
L 54.890625 0 
L 45.90625 0 
L 45.90625 32.71875 
Q 45.90625 40.484375 42.875 44.328125 
Q 39.84375 48.1875 33.796875 48.1875 
Q 26.515625 48.1875 22.3125 43.546875 
Q 18.109375 38.921875 18.109375 30.90625 
L 18.109375 0 
L 9.078125 0 
L 9.078125 54.6875 
L 18.109375 54.6875 
L 18.109375 46.1875 
Q 21.34375 51.125 25.703125 53.5625 
Q 30.078125 56 35.796875 56 
Q 45.21875 56 50.046875 50.171875 
Q 54.890625 44.34375 54.890625 33.015625 
z
" id="DejaVuSans-110"/>
      <path id="DejaVuSans-32"/>
      <path d="M 48.78125 52.59375 
L 48.78125 44.1875 
Q 44.96875 46.296875 41.140625 47.34375 
Q 37.3125 48.390625 33.40625 48.390625 
Q 24.65625 48.390625 19.8125 42.84375 
Q 14.984375 37.3125 14.984375 27.296875 
Q 14.984375 17.28125 19.8125 11.734375 
Q 24.65625 6.203125 33.40625 6.203125 
Q 37.3125 6.203125 41.140625 7.25 
Q 44.96875 8.296875 48.78125 10.40625 
L 48.78125 2.09375 
Q 45.015625 0.34375 40.984375 -0.53125 
Q 36.96875 -1.421875 32.421875 -1.421875 
Q 20.0625 -1.421875 12.78125 6.34375 
Q 5.515625 14.109375 5.515625 27.296875 
Q 5.515625 40.671875 12.859375 48.328125 
Q 20.21875 56 33.015625 56 
Q 37.15625 56 41.109375 55.140625 
Q 45.0625 54.296875 48.78125 52.59375 
z
" id="DejaVuSans-99"/>
      <path d="M 9.421875 75.984375 
L 18.40625 75.984375 
L 18.40625 0 
L 9.421875 0 
z
" id="DejaVuSans-108"/>
      <path d="M 18.3125 70.21875 
L 18.3125 54.6875 
L 36.8125 54.6875 
L 36.8125 47.703125 
L 18.3125 47.703125 
L 18.3125 18.015625 
Q 18.3125 11.328125 20.140625 9.421875 
Q 21.96875 7.515625 27.59375 7.515625 
L 36.8125 7.515625 
L 36.8125 0 
L 27.59375 0 
Q 17.1875 0 13.234375 3.875 
Q 9.28125 7.765625 9.28125 18.015625 
L 9.28125 47.703125 
L 2.6875 47.703125 
L 2.6875 54.6875 
L 9.28125 54.6875 
L 9.28125 70.21875 
z
" id="DejaVuSans-116"/>
      <path d="M 9.421875 54.6875 
L 18.40625 54.6875 
L 18.40625 0 
L 9.421875 0 
z
M 9.421875 75.984375 
L 18.40625 75.984375 
L 18.40625 64.59375 
L 9.421875 64.59375 
z
" id="DejaVuSans-105"/>
      <path d="M 37.109375 75.984375 
L 37.109375 68.5 
L 28.515625 68.5 
Q 23.6875 68.5 21.796875 66.546875 
Q 19.921875 64.59375 19.921875 59.515625 
L 19.921875 54.6875 
L 34.71875 54.6875 
L 34.71875 47.703125 
L 19.921875 47.703125 
L 19.921875 0 
L 10.890625 0 
L 10.890625 47.703125 
L 2.296875 47.703125 
L 2.296875 54.6875 
L 10.890625 54.6875 
L 10.890625 58.5 
Q 10.890625 67.625 15.140625 71.796875 
Q 19.390625 75.984375 28.609375 75.984375 
z
" id="DejaVuSans-102"/>
     </defs>
     <g style="fill:#262626;" transform="translate(531.805469 346.476562)scale(0.1 -0.1)">
      <use xlink:href="#DejaVuSans-80"/>
      <use x="60.255859" xlink:href="#DejaVuSans-101"/>
      <use x="121.779297" xlink:href="#DejaVuSans-97"/>
      <use x="183.058594" xlink:href="#DejaVuSans-114"/>
      <use x="224.171875" xlink:href="#DejaVuSans-115"/>
      <use x="276.271484" xlink:href="#DejaVuSans-111"/>
      <use x="337.453125" xlink:href="#DejaVuSans-110"/>
      <use x="400.832031" xlink:href="#DejaVuSans-32"/>
      <use x="432.619141" xlink:href="#DejaVuSans-99"/>
      <use x="487.599609" xlink:href="#DejaVuSans-111"/>
      <use x="548.78125" xlink:href="#DejaVuSans-114"/>
      <use x="589.878906" xlink:href="#DejaVuSans-114"/>
      <use x="630.960938" xlink:href="#DejaVuSans-101"/>
      <use x="692.484375" xlink:href="#DejaVuSans-108"/>
      <use x="720.267578" xlink:href="#DejaVuSans-97"/>
      <use x="781.546875" xlink:href="#DejaVuSans-116"/>
      <use x="820.755859" xlink:href="#DejaVuSans-105"/>
      <use x="848.539062" xlink:href="#DejaVuSans-111"/>
      <use x="909.720703" xlink:href="#DejaVuSans-110"/>
      <use x="973.099609" xlink:href="#DejaVuSans-32"/>
      <use x="1004.886719" xlink:href="#DejaVuSans-99"/>
      <use x="1059.867188" xlink:href="#DejaVuSans-111"/>
      <use x="1121.048828" xlink:href="#DejaVuSans-101"/>
      <use x="1182.572266" xlink:href="#DejaVuSans-102"/>
      <use x="1217.777344" xlink:href="#DejaVuSans-102"/>
      <use x="1252.982422" xlink:href="#DejaVuSans-105"/>
      <use x="1280.765625" xlink:href="#DejaVuSans-99"/>
      <use x="1335.746094" xlink:href="#DejaVuSans-105"/>
      <use x="1363.529297" xlink:href="#DejaVuSans-101"/>
      <use x="1425.052734" xlink:href="#DejaVuSans-110"/>
      <use x="1488.431641" xlink:href="#DejaVuSans-116"/>
     </g>
    </g>
   </g>
   <g id="matplotlib.axis_2">
    <g id="ytick_1">
     <g id="text_9">
      <!-- (a) DDA source library &amp; Wide DIA -->
      <defs>
       <path d="M 31 75.875 
Q 24.46875 64.65625 21.28125 53.65625 
Q 18.109375 42.671875 18.109375 31.390625 
Q 18.109375 20.125 21.3125 9.0625 
Q 24.515625 -2 31 -13.1875 
L 23.1875 -13.1875 
Q 15.875 -1.703125 12.234375 9.375 
Q 8.59375 20.453125 8.59375 31.390625 
Q 8.59375 42.28125 12.203125 53.3125 
Q 15.828125 64.359375 23.1875 75.875 
z
" id="DejaVuSans-40"/>
       <path d="M 8.015625 75.875 
L 15.828125 75.875 
Q 23.140625 64.359375 26.78125 53.3125 
Q 30.421875 42.28125 30.421875 31.390625 
Q 30.421875 20.453125 26.78125 9.375 
Q 23.140625 -1.703125 15.828125 -13.1875 
L 8.015625 -13.1875 
Q 14.5 -2 17.703125 9.0625 
Q 20.90625 20.125 20.90625 31.390625 
Q 20.90625 42.671875 17.703125 53.65625 
Q 14.5 64.65625 8.015625 75.875 
z
" id="DejaVuSans-41"/>
       <path d="M 19.671875 64.796875 
L 19.671875 8.109375 
L 31.59375 8.109375 
Q 46.6875 8.109375 53.6875 14.9375 
Q 60.6875 21.78125 60.6875 36.53125 
Q 60.6875 51.171875 53.6875 57.984375 
Q 46.6875 64.796875 31.59375 64.796875 
z
M 9.8125 72.90625 
L 30.078125 72.90625 
Q 51.265625 72.90625 61.171875 64.09375 
Q 71.09375 55.28125 71.09375 36.53125 
Q 71.09375 17.671875 61.125 8.828125 
Q 51.171875 0 30.078125 0 
L 9.8125 0 
z
" id="DejaVuSans-68"/>
       <path d="M 34.1875 63.1875 
L 20.796875 26.90625 
L 47.609375 26.90625 
z
M 28.609375 72.90625 
L 39.796875 72.90625 
L 67.578125 0 
L 57.328125 0 
L 50.6875 18.703125 
L 17.828125 18.703125 
L 11.1875 0 
L 0.78125 0 
z
" id="DejaVuSans-65"/>
       <path d="M 8.5 21.578125 
L 8.5 54.6875 
L 17.484375 54.6875 
L 17.484375 21.921875 
Q 17.484375 14.15625 20.5 10.265625 
Q 23.53125 6.390625 29.59375 6.390625 
Q 36.859375 6.390625 41.078125 11.03125 
Q 45.3125 15.671875 45.3125 23.6875 
L 45.3125 54.6875 
L 54.296875 54.6875 
L 54.296875 0 
L 45.3125 0 
L 45.3125 8.40625 
Q 42.046875 3.421875 37.71875 1 
Q 33.40625 -1.421875 27.6875 -1.421875 
Q 18.265625 -1.421875 13.375 4.4375 
Q 8.5 10.296875 8.5 21.578125 
z
M 31.109375 56 
z
" id="DejaVuSans-117"/>
       <path d="M 48.6875 27.296875 
Q 48.6875 37.203125 44.609375 42.84375 
Q 40.53125 48.484375 33.40625 48.484375 
Q 26.265625 48.484375 22.1875 42.84375 
Q 18.109375 37.203125 18.109375 27.296875 
Q 18.109375 17.390625 22.1875 11.75 
Q 26.265625 6.109375 33.40625 6.109375 
Q 40.53125 6.109375 44.609375 11.75 
Q 48.6875 17.390625 48.6875 27.296875 
z
M 18.109375 46.390625 
Q 20.953125 51.265625 25.265625 53.625 
Q 29.59375 56 35.59375 56 
Q 45.5625 56 51.78125 48.09375 
Q 58.015625 40.1875 58.015625 27.296875 
Q 58.015625 14.40625 51.78125 6.484375 
Q 45.5625 -1.421875 35.59375 -1.421875 
Q 29.59375 -1.421875 25.265625 0.953125 
Q 20.953125 3.328125 18.109375 8.203125 
L 18.109375 0 
L 9.078125 0 
L 9.078125 75.984375 
L 18.109375 75.984375 
z
" id="DejaVuSans-98"/>
       <path d="M 32.171875 -5.078125 
Q 28.375 -14.84375 24.75 -17.8125 
Q 21.140625 -20.796875 15.09375 -20.796875 
L 7.90625 -20.796875 
L 7.90625 -13.28125 
L 13.1875 -13.28125 
Q 16.890625 -13.28125 18.9375 -11.515625 
Q 21 -9.765625 23.484375 -3.21875 
L 25.09375 0.875 
L 2.984375 54.6875 
L 12.5 54.6875 
L 29.59375 11.921875 
L 46.6875 54.6875 
L 56.203125 54.6875 
z
" id="DejaVuSans-121"/>
       <path d="M 24.3125 39.203125 
Q 19.875 35.25 17.796875 31.3125 
Q 15.71875 27.390625 15.71875 23.09375 
Q 15.71875 15.96875 20.890625 11.234375 
Q 26.078125 6.5 33.890625 6.5 
Q 38.53125 6.5 42.578125 8.03125 
Q 46.625 9.578125 50.203125 12.703125 
z
M 31.203125 44.671875 
L 56 19.28125 
Q 58.890625 23.640625 60.5 28.59375 
Q 62.109375 33.546875 62.40625 39.109375 
L 71.484375 39.109375 
Q 70.90625 32.671875 68.359375 26.359375 
Q 65.828125 20.0625 61.28125 13.921875 
L 74.90625 0 
L 62.59375 0 
L 55.609375 7.171875 
Q 50.53125 2.828125 44.96875 0.703125 
Q 39.40625 -1.421875 33.015625 -1.421875 
Q 21.234375 -1.421875 13.765625 5.296875 
Q 6.296875 12.015625 6.296875 22.515625 
Q 6.296875 28.765625 9.5625 34.25 
Q 12.84375 39.75 19.390625 44.578125 
Q 17.046875 47.65625 15.8125 50.703125 
Q 14.59375 53.765625 14.59375 56.6875 
Q 14.59375 64.59375 20.015625 69.40625 
Q 25.4375 74.21875 34.421875 74.21875 
Q 38.484375 74.21875 42.5 73.34375 
Q 46.53125 72.46875 50.6875 70.703125 
L 50.6875 61.8125 
Q 46.4375 64.109375 42.578125 65.296875 
Q 38.71875 66.5 35.40625 66.5 
Q 30.28125 66.5 27.078125 63.78125 
Q 23.875 61.078125 23.875 56.78125 
Q 23.875 54.296875 25.3125 51.78125 
Q 26.765625 49.265625 31.203125 44.671875 
z
" id="DejaVuSans-38"/>
       <path d="M 3.328125 72.90625 
L 13.28125 72.90625 
L 28.609375 11.28125 
L 43.890625 72.90625 
L 54.984375 72.90625 
L 70.3125 11.28125 
L 85.59375 72.90625 
L 95.609375 72.90625 
L 77.296875 0 
L 64.890625 0 
L 49.515625 63.28125 
L 33.984375 0 
L 21.578125 0 
z
" id="DejaVuSans-87"/>
       <path d="M 45.40625 46.390625 
L 45.40625 75.984375 
L 54.390625 75.984375 
L 54.390625 0 
L 45.40625 0 
L 45.40625 8.203125 
Q 42.578125 3.328125 38.25 0.953125 
Q 33.9375 -1.421875 27.875 -1.421875 
Q 17.96875 -1.421875 11.734375 6.484375 
Q 5.515625 14.40625 5.515625 27.296875 
Q 5.515625 40.1875 11.734375 48.09375 
Q 17.96875 56 27.875 56 
Q 33.9375 56 38.25 53.625 
Q 42.578125 51.265625 45.40625 46.390625 
z
M 14.796875 27.296875 
Q 14.796875 17.390625 18.875 11.75 
Q 22.953125 6.109375 30.078125 6.109375 
Q 37.203125 6.109375 41.296875 11.75 
Q 45.40625 17.390625 45.40625 27.296875 
Q 45.40625 37.203125 41.296875 42.84375 
Q 37.203125 48.484375 30.078125 48.484375 
Q 22.953125 48.484375 18.875 42.84375 
Q 14.796875 37.203125 14.796875 27.296875 
z
" id="DejaVuSans-100"/>
       <path d="M 9.8125 72.90625 
L 19.671875 72.90625 
L 19.671875 0 
L 9.8125 0 
z
" id="DejaVuSans-73"/>
      </defs>
      <g style="fill:#262626;" transform="translate(152.384375 41.398219)scale(0.1 -0.1)">
       <use xlink:href="#DejaVuSans-40"/>
       <use x="39.013672" xlink:href="#DejaVuSans-97"/>
       <use x="100.292969" xlink:href="#DejaVuSans-41"/>
       <use x="139.306641" xlink:href="#DejaVuSans-32"/>
       <use x="171.09375" xlink:href="#DejaVuSans-68"/>
       <use x="248.095703" xlink:href="#DejaVuSans-68"/>
       <use x="325.082031" xlink:href="#DejaVuSans-65"/>
       <use x="393.490234" xlink:href="#DejaVuSans-32"/>
       <use x="425.277344" xlink:href="#DejaVuSans-115"/>
       <use x="477.376953" xlink:href="#DejaVuSans-111"/>
       <use x="538.558594" xlink:href="#DejaVuSans-117"/>
       <use x="601.9375" xlink:href="#DejaVuSans-114"/>
       <use x="643.019531" xlink:href="#DejaVuSans-99"/>
       <use x="698" xlink:href="#DejaVuSans-101"/>
       <use x="759.523438" xlink:href="#DejaVuSans-32"/>
       <use x="791.310547" xlink:href="#DejaVuSans-108"/>
       <use x="819.09375" xlink:href="#DejaVuSans-105"/>
       <use x="846.876953" xlink:href="#DejaVuSans-98"/>
       <use x="910.353516" xlink:href="#DejaVuSans-114"/>
       <use x="951.466797" xlink:href="#DejaVuSans-97"/>
       <use x="1012.746094" xlink:href="#DejaVuSans-114"/>
       <use x="1053.859375" xlink:href="#DejaVuSans-121"/>
       <use x="1113.039062" xlink:href="#DejaVuSans-32"/>
       <use x="1144.826172" xlink:href="#DejaVuSans-38"/>
       <use x="1222.804688" xlink:href="#DejaVuSans-32"/>
       <use x="1254.591797" xlink:href="#DejaVuSans-87"/>
       <use x="1353.4375" xlink:href="#DejaVuSans-105"/>
       <use x="1381.220703" xlink:href="#DejaVuSans-100"/>
       <use x="1444.697266" xlink:href="#DejaVuSans-101"/>
       <use x="1506.220703" xlink:href="#DejaVuSans-32"/>
       <use x="1538.007812" xlink:href="#DejaVuSans-68"/>
       <use x="1615.009766" xlink:href="#DejaVuSans-73"/>
       <use x="1644.501953" xlink:href="#DejaVuSans-65"/>
      </g>
     </g>
    </g>
    <g id="ytick_2">
     <g id="text_10">
      <!-- (b) MS²PIP source library &amp; Wide DIA -->
      <defs>
       <path d="M 9.8125 72.90625 
L 24.515625 72.90625 
L 43.109375 23.296875 
L 61.8125 72.90625 
L 76.515625 72.90625 
L 76.515625 0 
L 66.890625 0 
L 66.890625 64.015625 
L 48.09375 14.015625 
L 38.1875 14.015625 
L 19.390625 64.015625 
L 19.390625 0 
L 9.8125 0 
z
" id="DejaVuSans-77"/>
       <path d="M 53.515625 70.515625 
L 53.515625 60.890625 
Q 47.90625 63.578125 42.921875 64.890625 
Q 37.9375 66.21875 33.296875 66.21875 
Q 25.25 66.21875 20.875 63.09375 
Q 16.5 59.96875 16.5 54.203125 
Q 16.5 49.359375 19.40625 46.890625 
Q 22.3125 44.4375 30.421875 42.921875 
L 36.375 41.703125 
Q 47.40625 39.59375 52.65625 34.296875 
Q 57.90625 29 57.90625 20.125 
Q 57.90625 9.515625 50.796875 4.046875 
Q 43.703125 -1.421875 29.984375 -1.421875 
Q 24.8125 -1.421875 18.96875 -0.25 
Q 13.140625 0.921875 6.890625 3.21875 
L 6.890625 13.375 
Q 12.890625 10.015625 18.65625 8.296875 
Q 24.421875 6.59375 29.984375 6.59375 
Q 38.421875 6.59375 43.015625 9.90625 
Q 47.609375 13.234375 47.609375 19.390625 
Q 47.609375 24.75 44.3125 27.78125 
Q 41.015625 30.8125 33.5 32.328125 
L 27.484375 33.5 
Q 16.453125 35.6875 11.515625 40.375 
Q 6.59375 45.0625 6.59375 53.421875 
Q 6.59375 63.09375 13.40625 68.65625 
Q 20.21875 74.21875 32.171875 74.21875 
Q 37.3125 74.21875 42.625 73.28125 
Q 47.953125 72.359375 53.515625 70.515625 
z
" id="DejaVuSans-83"/>
       <path d="M 13.09375 38.1875 
L 33.796875 38.1875 
L 33.796875 32.625 
L 4.59375 32.625 
L 4.59375 37.984375 
Q 6.25 39.5 9.328125 42.234375 
Q 26.125 57.125 26.125 61.71875 
Q 26.125 64.9375 23.578125 66.90625 
Q 21.046875 68.890625 16.890625 68.890625 
Q 14.359375 68.890625 11.375 68.03125 
Q 8.40625 67.1875 4.890625 65.484375 
L 4.890625 71.484375 
Q 8.640625 72.859375 11.890625 73.53125 
Q 15.140625 74.21875 17.921875 74.21875 
Q 25 74.21875 29.25 71 
Q 33.5 67.78125 33.5 62.5 
Q 33.5 55.71875 17.328125 41.84375 
Q 14.59375 39.5 13.09375 38.1875 
z
" id="DejaVuSans-178"/>
      </defs>
      <g style="fill:#262626;" transform="translate(140.407813 67.736219)scale(0.1 -0.1)">
       <use xlink:href="#DejaVuSans-40"/>
       <use x="39.013672" xlink:href="#DejaVuSans-98"/>
       <use x="102.490234" xlink:href="#DejaVuSans-41"/>
       <use x="141.503906" xlink:href="#DejaVuSans-32"/>
       <use x="173.291016" xlink:href="#DejaVuSans-77"/>
       <use x="259.570312" xlink:href="#DejaVuSans-83"/>
       <use x="323.046875" xlink:href="#DejaVuSans-178"/>
       <use x="363.134766" xlink:href="#DejaVuSans-80"/>
       <use x="423.4375" xlink:href="#DejaVuSans-73"/>
       <use x="452.929688" xlink:href="#DejaVuSans-80"/>
       <use x="513.232422" xlink:href="#DejaVuSans-32"/>
       <use x="545.019531" xlink:href="#DejaVuSans-115"/>
       <use x="597.119141" xlink:href="#DejaVuSans-111"/>
       <use x="658.300781" xlink:href="#DejaVuSans-117"/>
       <use x="721.679688" xlink:href="#DejaVuSans-114"/>
       <use x="762.761719" xlink:href="#DejaVuSans-99"/>
       <use x="817.742188" xlink:href="#DejaVuSans-101"/>
       <use x="879.265625" xlink:href="#DejaVuSans-32"/>
       <use x="911.052734" xlink:href="#DejaVuSans-108"/>
       <use x="938.835938" xlink:href="#DejaVuSans-105"/>
       <use x="966.619141" xlink:href="#DejaVuSans-98"/>
       <use x="1030.095703" xlink:href="#DejaVuSans-114"/>
       <use x="1071.208984" xlink:href="#DejaVuSans-97"/>
       <use x="1132.488281" xlink:href="#DejaVuSans-114"/>
       <use x="1173.601562" xlink:href="#DejaVuSans-121"/>
       <use x="1232.78125" xlink:href="#DejaVuSans-32"/>
       <use x="1264.568359" xlink:href="#DejaVuSans-38"/>
       <use x="1342.546875" xlink:href="#DejaVuSans-32"/>
       <use x="1374.333984" xlink:href="#DejaVuSans-87"/>
       <use x="1473.179688" xlink:href="#DejaVuSans-105"/>
       <use x="1500.962891" xlink:href="#DejaVuSans-100"/>
       <use x="1564.439453" xlink:href="#DejaVuSans-101"/>
       <use x="1625.962891" xlink:href="#DejaVuSans-32"/>
       <use x="1657.75" xlink:href="#DejaVuSans-68"/>
       <use x="1734.751953" xlink:href="#DejaVuSans-73"/>
       <use x="1764.244141" xlink:href="#DejaVuSans-65"/>
      </g>
     </g>
    </g>
    <g id="ytick_3">
     <g id="text_11">
      <!-- (b) Prosit source library &amp; Wide DIA -->
      <g style="fill:#262626;" transform="translate(146.240625 94.074219)scale(0.1 -0.1)">
       <use xlink:href="#DejaVuSans-40"/>
       <use x="39.013672" xlink:href="#DejaVuSans-98"/>
       <use x="102.490234" xlink:href="#DejaVuSans-41"/>
       <use x="141.503906" xlink:href="#DejaVuSans-32"/>
       <use x="173.291016" xlink:href="#DejaVuSans-80"/>
       <use x="233.578125" xlink:href="#DejaVuSans-114"/>
       <use x="274.660156" xlink:href="#DejaVuSans-111"/>
       <use x="335.841797" xlink:href="#DejaVuSans-115"/>
       <use x="387.941406" xlink:href="#DejaVuSans-105"/>
       <use x="415.724609" xlink:href="#DejaVuSans-116"/>
       <use x="454.933594" xlink:href="#DejaVuSans-32"/>
       <use x="486.720703" xlink:href="#DejaVuSans-115"/>
       <use x="538.820312" xlink:href="#DejaVuSans-111"/>
       <use x="600.001953" xlink:href="#DejaVuSans-117"/>
       <use x="663.380859" xlink:href="#DejaVuSans-114"/>
       <use x="704.462891" xlink:href="#DejaVuSans-99"/>
       <use x="759.443359" xlink:href="#DejaVuSans-101"/>
       <use x="820.966797" xlink:href="#DejaVuSans-32"/>
       <use x="852.753906" xlink:href="#DejaVuSans-108"/>
       <use x="880.537109" xlink:href="#DejaVuSans-105"/>
       <use x="908.320312" xlink:href="#DejaVuSans-98"/>
       <use x="971.796875" xlink:href="#DejaVuSans-114"/>
       <use x="1012.910156" xlink:href="#DejaVuSans-97"/>
       <use x="1074.189453" xlink:href="#DejaVuSans-114"/>
       <use x="1115.302734" xlink:href="#DejaVuSans-121"/>
       <use x="1174.482422" xlink:href="#DejaVuSans-32"/>
       <use x="1206.269531" xlink:href="#DejaVuSans-38"/>
       <use x="1284.248047" xlink:href="#DejaVuSans-32"/>
       <use x="1316.035156" xlink:href="#DejaVuSans-87"/>
       <use x="1414.880859" xlink:href="#DejaVuSans-105"/>
       <use x="1442.664062" xlink:href="#DejaVuSans-100"/>
       <use x="1506.140625" xlink:href="#DejaVuSans-101"/>
       <use x="1567.664062" xlink:href="#DejaVuSans-32"/>
       <use x="1599.451172" xlink:href="#DejaVuSans-68"/>
       <use x="1676.453125" xlink:href="#DejaVuSans-73"/>
       <use x="1705.945312" xlink:href="#DejaVuSans-65"/>
      </g>
     </g>
    </g>
    <g id="ytick_4">
     <g id="text_12">
      <!-- (f*) DDA source library &amp; Narrow DIA -->
      <defs>
       <path d="M 47.015625 60.890625 
L 29.5 51.421875 
L 47.015625 41.890625 
L 44.1875 37.109375 
L 27.78125 47.015625 
L 27.78125 28.609375 
L 22.21875 28.609375 
L 22.21875 47.015625 
L 5.8125 37.109375 
L 2.984375 41.890625 
L 20.515625 51.421875 
L 2.984375 60.890625 
L 5.8125 65.71875 
L 22.21875 55.8125 
L 22.21875 74.21875 
L 27.78125 74.21875 
L 27.78125 55.8125 
L 44.1875 65.71875 
z
" id="DejaVuSans-42"/>
       <path d="M 9.8125 72.90625 
L 23.09375 72.90625 
L 55.421875 11.921875 
L 55.421875 72.90625 
L 64.984375 72.90625 
L 64.984375 0 
L 51.703125 0 
L 19.390625 60.984375 
L 19.390625 0 
L 9.8125 0 
z
" id="DejaVuSans-78"/>
       <path d="M 4.203125 54.6875 
L 13.1875 54.6875 
L 24.421875 12.015625 
L 35.59375 54.6875 
L 46.1875 54.6875 
L 57.421875 12.015625 
L 68.609375 54.6875 
L 77.59375 54.6875 
L 63.28125 0 
L 52.6875 0 
L 40.921875 44.828125 
L 29.109375 0 
L 18.5 0 
z
" id="DejaVuSans-119"/>
      </defs>
      <g style="fill:#262626;" transform="translate(139.032813 142.698219)scale(0.1 -0.1)">
       <use xlink:href="#DejaVuSans-40"/>
       <use x="39.013672" xlink:href="#DejaVuSans-102"/>
       <use x="74.21875" xlink:href="#DejaVuSans-42"/>
       <use x="124.21875" xlink:href="#DejaVuSans-41"/>
       <use x="163.232422" xlink:href="#DejaVuSans-32"/>
       <use x="195.019531" xlink:href="#DejaVuSans-68"/>
       <use x="272.021484" xlink:href="#DejaVuSans-68"/>
       <use x="349.007812" xlink:href="#DejaVuSans-65"/>
       <use x="417.416016" xlink:href="#DejaVuSans-32"/>
       <use x="449.203125" xlink:href="#DejaVuSans-115"/>
       <use x="501.302734" xlink:href="#DejaVuSans-111"/>
       <use x="562.484375" xlink:href="#DejaVuSans-117"/>
       <use x="625.863281" xlink:href="#DejaVuSans-114"/>
       <use x="666.945312" xlink:href="#DejaVuSans-99"/>
       <use x="721.925781" xlink:href="#DejaVuSans-101"/>
       <use x="783.449219" xlink:href="#DejaVuSans-32"/>
       <use x="815.236328" xlink:href="#DejaVuSans-108"/>
       <use x="843.019531" xlink:href="#DejaVuSans-105"/>
       <use x="870.802734" xlink:href="#DejaVuSans-98"/>
       <use x="934.279297" xlink:href="#DejaVuSans-114"/>
       <use x="975.392578" xlink:href="#DejaVuSans-97"/>
       <use x="1036.671875" xlink:href="#DejaVuSans-114"/>
       <use x="1077.785156" xlink:href="#DejaVuSans-121"/>
       <use x="1136.964844" xlink:href="#DejaVuSans-32"/>
       <use x="1168.751953" xlink:href="#DejaVuSans-38"/>
       <use x="1246.730469" xlink:href="#DejaVuSans-32"/>
       <use x="1278.517578" xlink:href="#DejaVuSans-78"/>
       <use x="1353.322266" xlink:href="#DejaVuSans-97"/>
       <use x="1414.601562" xlink:href="#DejaVuSans-114"/>
       <use x="1455.699219" xlink:href="#DejaVuSans-114"/>
       <use x="1496.78125" xlink:href="#DejaVuSans-111"/>
       <use x="1557.962891" xlink:href="#DejaVuSans-119"/>
       <use x="1639.75" xlink:href="#DejaVuSans-32"/>
       <use x="1671.537109" xlink:href="#DejaVuSans-68"/>
       <use x="1748.539062" xlink:href="#DejaVuSans-73"/>
       <use x="1778.03125" xlink:href="#DejaVuSans-65"/>
      </g>
     </g>
    </g>
    <g id="ytick_5">
     <g id="text_13">
      <!-- (c*) MS²PIP source library &amp; Narrow DIA -->
      <g style="fill:#262626;" transform="translate(125.298438 169.036219)scale(0.1 -0.1)">
       <use xlink:href="#DejaVuSans-40"/>
       <use x="39.013672" xlink:href="#DejaVuSans-99"/>
       <use x="93.994141" xlink:href="#DejaVuSans-42"/>
       <use x="143.994141" xlink:href="#DejaVuSans-41"/>
       <use x="183.007812" xlink:href="#DejaVuSans-32"/>
       <use x="214.794922" xlink:href="#DejaVuSans-77"/>
       <use x="301.074219" xlink:href="#DejaVuSans-83"/>
       <use x="364.550781" xlink:href="#DejaVuSans-178"/>
       <use x="404.638672" xlink:href="#DejaVuSans-80"/>
       <use x="464.941406" xlink:href="#DejaVuSans-73"/>
       <use x="494.433594" xlink:href="#DejaVuSans-80"/>
       <use x="554.736328" xlink:href="#DejaVuSans-32"/>
       <use x="586.523438" xlink:href="#DejaVuSans-115"/>
       <use x="638.623047" xlink:href="#DejaVuSans-111"/>
       <use x="699.804688" xlink:href="#DejaVuSans-117"/>
       <use x="763.183594" xlink:href="#DejaVuSans-114"/>
       <use x="804.265625" xlink:href="#DejaVuSans-99"/>
       <use x="859.246094" xlink:href="#DejaVuSans-101"/>
       <use x="920.769531" xlink:href="#DejaVuSans-32"/>
       <use x="952.556641" xlink:href="#DejaVuSans-108"/>
       <use x="980.339844" xlink:href="#DejaVuSans-105"/>
       <use x="1008.123047" xlink:href="#DejaVuSans-98"/>
       <use x="1071.599609" xlink:href="#DejaVuSans-114"/>
       <use x="1112.712891" xlink:href="#DejaVuSans-97"/>
       <use x="1173.992188" xlink:href="#DejaVuSans-114"/>
       <use x="1215.105469" xlink:href="#DejaVuSans-121"/>
       <use x="1274.285156" xlink:href="#DejaVuSans-32"/>
       <use x="1306.072266" xlink:href="#DejaVuSans-38"/>
       <use x="1384.050781" xlink:href="#DejaVuSans-32"/>
       <use x="1415.837891" xlink:href="#DejaVuSans-78"/>
       <use x="1490.642578" xlink:href="#DejaVuSans-97"/>
       <use x="1551.921875" xlink:href="#DejaVuSans-114"/>
       <use x="1593.019531" xlink:href="#DejaVuSans-114"/>
       <use x="1634.101562" xlink:href="#DejaVuSans-111"/>
       <use x="1695.283203" xlink:href="#DejaVuSans-119"/>
       <use x="1777.070312" xlink:href="#DejaVuSans-32"/>
       <use x="1808.857422" xlink:href="#DejaVuSans-68"/>
       <use x="1885.859375" xlink:href="#DejaVuSans-73"/>
       <use x="1915.351562" xlink:href="#DejaVuSans-65"/>
      </g>
     </g>
    </g>
    <g id="ytick_6">
     <g id="text_14">
      <!-- (c*) Prosit source library &amp; Narrow DIA -->
      <g style="fill:#262626;" transform="translate(131.13125 195.374219)scale(0.1 -0.1)">
       <use xlink:href="#DejaVuSans-40"/>
       <use x="39.013672" xlink:href="#DejaVuSans-99"/>
       <use x="93.994141" xlink:href="#DejaVuSans-42"/>
       <use x="143.994141" xlink:href="#DejaVuSans-41"/>
       <use x="183.007812" xlink:href="#DejaVuSans-32"/>
       <use x="214.794922" xlink:href="#DejaVuSans-80"/>
       <use x="275.082031" xlink:href="#DejaVuSans-114"/>
       <use x="316.164062" xlink:href="#DejaVuSans-111"/>
       <use x="377.345703" xlink:href="#DejaVuSans-115"/>
       <use x="429.445312" xlink:href="#DejaVuSans-105"/>
       <use x="457.228516" xlink:href="#DejaVuSans-116"/>
       <use x="496.4375" xlink:href="#DejaVuSans-32"/>
       <use x="528.224609" xlink:href="#DejaVuSans-115"/>
       <use x="580.324219" xlink:href="#DejaVuSans-111"/>
       <use x="641.505859" xlink:href="#DejaVuSans-117"/>
       <use x="704.884766" xlink:href="#DejaVuSans-114"/>
       <use x="745.966797" xlink:href="#DejaVuSans-99"/>
       <use x="800.947266" xlink:href="#DejaVuSans-101"/>
       <use x="862.470703" xlink:href="#DejaVuSans-32"/>
       <use x="894.257812" xlink:href="#DejaVuSans-108"/>
       <use x="922.041016" xlink:href="#DejaVuSans-105"/>
       <use x="949.824219" xlink:href="#DejaVuSans-98"/>
       <use x="1013.300781" xlink:href="#DejaVuSans-114"/>
       <use x="1054.414062" xlink:href="#DejaVuSans-97"/>
       <use x="1115.693359" xlink:href="#DejaVuSans-114"/>
       <use x="1156.806641" xlink:href="#DejaVuSans-121"/>
       <use x="1215.986328" xlink:href="#DejaVuSans-32"/>
       <use x="1247.773438" xlink:href="#DejaVuSans-38"/>
       <use x="1325.751953" xlink:href="#DejaVuSans-32"/>
       <use x="1357.539062" xlink:href="#DejaVuSans-78"/>
       <use x="1432.34375" xlink:href="#DejaVuSans-97"/>
       <use x="1493.623047" xlink:href="#DejaVuSans-114"/>
       <use x="1534.720703" xlink:href="#DejaVuSans-114"/>
       <use x="1575.802734" xlink:href="#DejaVuSans-111"/>
       <use x="1636.984375" xlink:href="#DejaVuSans-119"/>
       <use x="1718.771484" xlink:href="#DejaVuSans-32"/>
       <use x="1750.558594" xlink:href="#DejaVuSans-68"/>
       <use x="1827.560547" xlink:href="#DejaVuSans-73"/>
       <use x="1857.052734" xlink:href="#DejaVuSans-65"/>
      </g>
     </g>
    </g>
    <g id="ytick_7">
     <g id="text_15">
      <!-- (f) DDA chromatogram library &amp; Wide DIA -->
      <defs>
       <path d="M 54.890625 33.015625 
L 54.890625 0 
L 45.90625 0 
L 45.90625 32.71875 
Q 45.90625 40.484375 42.875 44.328125 
Q 39.84375 48.1875 33.796875 48.1875 
Q 26.515625 48.1875 22.3125 43.546875 
Q 18.109375 38.921875 18.109375 30.90625 
L 18.109375 0 
L 9.078125 0 
L 9.078125 75.984375 
L 18.109375 75.984375 
L 18.109375 46.1875 
Q 21.34375 51.125 25.703125 53.5625 
Q 30.078125 56 35.796875 56 
Q 45.21875 56 50.046875 50.171875 
Q 54.890625 44.34375 54.890625 33.015625 
z
" id="DejaVuSans-104"/>
       <path d="M 52 44.1875 
Q 55.375 50.25 60.0625 53.125 
Q 64.75 56 71.09375 56 
Q 79.640625 56 84.28125 50.015625 
Q 88.921875 44.046875 88.921875 33.015625 
L 88.921875 0 
L 79.890625 0 
L 79.890625 32.71875 
Q 79.890625 40.578125 77.09375 44.375 
Q 74.3125 48.1875 68.609375 48.1875 
Q 61.625 48.1875 57.5625 43.546875 
Q 53.515625 38.921875 53.515625 30.90625 
L 53.515625 0 
L 44.484375 0 
L 44.484375 32.71875 
Q 44.484375 40.625 41.703125 44.40625 
Q 38.921875 48.1875 33.109375 48.1875 
Q 26.21875 48.1875 22.15625 43.53125 
Q 18.109375 38.875 18.109375 30.90625 
L 18.109375 0 
L 9.078125 0 
L 9.078125 54.6875 
L 18.109375 54.6875 
L 18.109375 46.1875 
Q 21.1875 51.21875 25.484375 53.609375 
Q 29.78125 56 35.6875 56 
Q 41.65625 56 45.828125 52.96875 
Q 50 49.953125 52 44.1875 
z
" id="DejaVuSans-109"/>
       <path d="M 45.40625 27.984375 
Q 45.40625 37.75 41.375 43.109375 
Q 37.359375 48.484375 30.078125 48.484375 
Q 22.859375 48.484375 18.828125 43.109375 
Q 14.796875 37.75 14.796875 27.984375 
Q 14.796875 18.265625 18.828125 12.890625 
Q 22.859375 7.515625 30.078125 7.515625 
Q 37.359375 7.515625 41.375 12.890625 
Q 45.40625 18.265625 45.40625 27.984375 
z
M 54.390625 6.78125 
Q 54.390625 -7.171875 48.1875 -13.984375 
Q 42 -20.796875 29.203125 -20.796875 
Q 24.46875 -20.796875 20.265625 -20.09375 
Q 16.0625 -19.390625 12.109375 -17.921875 
L 12.109375 -9.1875 
Q 16.0625 -11.328125 19.921875 -12.34375 
Q 23.78125 -13.375 27.78125 -13.375 
Q 36.625 -13.375 41.015625 -8.765625 
Q 45.40625 -4.15625 45.40625 5.171875 
L 45.40625 9.625 
Q 42.625 4.78125 38.28125 2.390625 
Q 33.9375 0 27.875 0 
Q 17.828125 0 11.671875 7.65625 
Q 5.515625 15.328125 5.515625 27.984375 
Q 5.515625 40.671875 11.671875 48.328125 
Q 17.828125 56 27.875 56 
Q 33.9375 56 38.28125 53.609375 
Q 42.625 51.21875 45.40625 46.390625 
L 45.40625 54.6875 
L 54.390625 54.6875 
z
" id="DejaVuSans-103"/>
      </defs>
      <g style="fill:#262626;" transform="translate(114.11875 243.998219)scale(0.1 -0.1)">
       <use xlink:href="#DejaVuSans-40"/>
       <use x="39.013672" xlink:href="#DejaVuSans-102"/>
       <use x="74.21875" xlink:href="#DejaVuSans-41"/>
       <use x="113.232422" xlink:href="#DejaVuSans-32"/>
       <use x="145.019531" xlink:href="#DejaVuSans-68"/>
       <use x="222.021484" xlink:href="#DejaVuSans-68"/>
       <use x="299.007812" xlink:href="#DejaVuSans-65"/>
       <use x="367.416016" xlink:href="#DejaVuSans-32"/>
       <use x="399.203125" xlink:href="#DejaVuSans-99"/>
       <use x="454.183594" xlink:href="#DejaVuSans-104"/>
       <use x="517.5625" xlink:href="#DejaVuSans-114"/>
       <use x="558.644531" xlink:href="#DejaVuSans-111"/>
       <use x="619.826172" xlink:href="#DejaVuSans-109"/>
       <use x="717.238281" xlink:href="#DejaVuSans-97"/>
       <use x="778.517578" xlink:href="#DejaVuSans-116"/>
       <use x="817.726562" xlink:href="#DejaVuSans-111"/>
       <use x="878.908203" xlink:href="#DejaVuSans-103"/>
       <use x="942.384766" xlink:href="#DejaVuSans-114"/>
       <use x="983.498047" xlink:href="#DejaVuSans-97"/>
       <use x="1044.777344" xlink:href="#DejaVuSans-109"/>
       <use x="1142.189453" xlink:href="#DejaVuSans-32"/>
       <use x="1173.976562" xlink:href="#DejaVuSans-108"/>
       <use x="1201.759766" xlink:href="#DejaVuSans-105"/>
       <use x="1229.542969" xlink:href="#DejaVuSans-98"/>
       <use x="1293.019531" xlink:href="#DejaVuSans-114"/>
       <use x="1334.132812" xlink:href="#DejaVuSans-97"/>
       <use x="1395.412109" xlink:href="#DejaVuSans-114"/>
       <use x="1436.525391" xlink:href="#DejaVuSans-121"/>
       <use x="1495.705078" xlink:href="#DejaVuSans-32"/>
       <use x="1527.492188" xlink:href="#DejaVuSans-38"/>
       <use x="1605.470703" xlink:href="#DejaVuSans-32"/>
       <use x="1637.257812" xlink:href="#DejaVuSans-87"/>
       <use x="1736.103516" xlink:href="#DejaVuSans-105"/>
       <use x="1763.886719" xlink:href="#DejaVuSans-100"/>
       <use x="1827.363281" xlink:href="#DejaVuSans-101"/>
       <use x="1888.886719" xlink:href="#DejaVuSans-32"/>
       <use x="1920.673828" xlink:href="#DejaVuSans-68"/>
       <use x="1997.675781" xlink:href="#DejaVuSans-73"/>
       <use x="2027.167969" xlink:href="#DejaVuSans-65"/>
      </g>
     </g>
    </g>
    <g id="ytick_8">
     <g id="text_16">
      <!-- (c) MS²PIP chromatogram library &amp; Wide DIA -->
      <g style="fill:#262626;" transform="translate(100.384375 270.336219)scale(0.1 -0.1)">
       <use xlink:href="#DejaVuSans-40"/>
       <use x="39.013672" xlink:href="#DejaVuSans-99"/>
       <use x="93.994141" xlink:href="#DejaVuSans-41"/>
       <use x="133.007812" xlink:href="#DejaVuSans-32"/>
       <use x="164.794922" xlink:href="#DejaVuSans-77"/>
       <use x="251.074219" xlink:href="#DejaVuSans-83"/>
       <use x="314.550781" xlink:href="#DejaVuSans-178"/>
       <use x="354.638672" xlink:href="#DejaVuSans-80"/>
       <use x="414.941406" xlink:href="#DejaVuSans-73"/>
       <use x="444.433594" xlink:href="#DejaVuSans-80"/>
       <use x="504.736328" xlink:href="#DejaVuSans-32"/>
       <use x="536.523438" xlink:href="#DejaVuSans-99"/>
       <use x="591.503906" xlink:href="#DejaVuSans-104"/>
       <use x="654.882812" xlink:href="#DejaVuSans-114"/>
       <use x="695.964844" xlink:href="#DejaVuSans-111"/>
       <use x="757.146484" xlink:href="#DejaVuSans-109"/>
       <use x="854.558594" xlink:href="#DejaVuSans-97"/>
       <use x="915.837891" xlink:href="#DejaVuSans-116"/>
       <use x="955.046875" xlink:href="#DejaVuSans-111"/>
       <use x="1016.228516" xlink:href="#DejaVuSans-103"/>
       <use x="1079.705078" xlink:href="#DejaVuSans-114"/>
       <use x="1120.818359" xlink:href="#DejaVuSans-97"/>
       <use x="1182.097656" xlink:href="#DejaVuSans-109"/>
       <use x="1279.509766" xlink:href="#DejaVuSans-32"/>
       <use x="1311.296875" xlink:href="#DejaVuSans-108"/>
       <use x="1339.080078" xlink:href="#DejaVuSans-105"/>
       <use x="1366.863281" xlink:href="#DejaVuSans-98"/>
       <use x="1430.339844" xlink:href="#DejaVuSans-114"/>
       <use x="1471.453125" xlink:href="#DejaVuSans-97"/>
       <use x="1532.732422" xlink:href="#DejaVuSans-114"/>
       <use x="1573.845703" xlink:href="#DejaVuSans-121"/>
       <use x="1633.025391" xlink:href="#DejaVuSans-32"/>
       <use x="1664.8125" xlink:href="#DejaVuSans-38"/>
       <use x="1742.791016" xlink:href="#DejaVuSans-32"/>
       <use x="1774.578125" xlink:href="#DejaVuSans-87"/>
       <use x="1873.423828" xlink:href="#DejaVuSans-105"/>
       <use x="1901.207031" xlink:href="#DejaVuSans-100"/>
       <use x="1964.683594" xlink:href="#DejaVuSans-101"/>
       <use x="2026.207031" xlink:href="#DejaVuSans-32"/>
       <use x="2057.994141" xlink:href="#DejaVuSans-68"/>
       <use x="2134.996094" xlink:href="#DejaVuSans-73"/>
       <use x="2164.488281" xlink:href="#DejaVuSans-65"/>
      </g>
     </g>
    </g>
    <g id="ytick_9">
     <g id="text_17">
      <!-- (c) Prosit chromatogram library &amp; Wide DIA -->
      <g style="fill:#262626;" transform="translate(106.217187 296.674219)scale(0.1 -0.1)">
       <use xlink:href="#DejaVuSans-40"/>
       <use x="39.013672" xlink:href="#DejaVuSans-99"/>
       <use x="93.994141" xlink:href="#DejaVuSans-41"/>
       <use x="133.007812" xlink:href="#DejaVuSans-32"/>
       <use x="164.794922" xlink:href="#DejaVuSans-80"/>
       <use x="225.082031" xlink:href="#DejaVuSans-114"/>
       <use x="266.164062" xlink:href="#DejaVuSans-111"/>
       <use x="327.345703" xlink:href="#DejaVuSans-115"/>
       <use x="379.445312" xlink:href="#DejaVuSans-105"/>
       <use x="407.228516" xlink:href="#DejaVuSans-116"/>
       <use x="446.4375" xlink:href="#DejaVuSans-32"/>
       <use x="478.224609" xlink:href="#DejaVuSans-99"/>
       <use x="533.205078" xlink:href="#DejaVuSans-104"/>
       <use x="596.583984" xlink:href="#DejaVuSans-114"/>
       <use x="637.666016" xlink:href="#DejaVuSans-111"/>
       <use x="698.847656" xlink:href="#DejaVuSans-109"/>
       <use x="796.259766" xlink:href="#DejaVuSans-97"/>
       <use x="857.539062" xlink:href="#DejaVuSans-116"/>
       <use x="896.748047" xlink:href="#DejaVuSans-111"/>
       <use x="957.929688" xlink:href="#DejaVuSans-103"/>
       <use x="1021.40625" xlink:href="#DejaVuSans-114"/>
       <use x="1062.519531" xlink:href="#DejaVuSans-97"/>
       <use x="1123.798828" xlink:href="#DejaVuSans-109"/>
       <use x="1221.210938" xlink:href="#DejaVuSans-32"/>
       <use x="1252.998047" xlink:href="#DejaVuSans-108"/>
       <use x="1280.78125" xlink:href="#DejaVuSans-105"/>
       <use x="1308.564453" xlink:href="#DejaVuSans-98"/>
       <use x="1372.041016" xlink:href="#DejaVuSans-114"/>
       <use x="1413.154297" xlink:href="#DejaVuSans-97"/>
       <use x="1474.433594" xlink:href="#DejaVuSans-114"/>
       <use x="1515.546875" xlink:href="#DejaVuSans-121"/>
       <use x="1574.726562" xlink:href="#DejaVuSans-32"/>
       <use x="1606.513672" xlink:href="#DejaVuSans-38"/>
       <use x="1684.492188" xlink:href="#DejaVuSans-32"/>
       <use x="1716.279297" xlink:href="#DejaVuSans-87"/>
       <use x="1815.125" xlink:href="#DejaVuSans-105"/>
       <use x="1842.908203" xlink:href="#DejaVuSans-100"/>
       <use x="1906.384766" xlink:href="#DejaVuSans-101"/>
       <use x="1967.908203" xlink:href="#DejaVuSans-32"/>
       <use x="1999.695312" xlink:href="#DejaVuSans-68"/>
       <use x="2076.697266" xlink:href="#DejaVuSans-73"/>
       <use x="2106.189453" xlink:href="#DejaVuSans-65"/>
      </g>
     </g>
    </g>
   </g>
   <g id="patch_3">
    <path clip-path="url(#p52c440dcf9)" d="M 621.891005 24.700133 
L 621.891005 51.1732 
L 799.239108 51.1732 
L 799.239108 24.700133 
L 621.891005 24.700133 
z
" style="fill:#5875a4;stroke:#4c4c4c;stroke-linejoin:miter;stroke-width:1.5;"/>
   </g>
   <g id="patch_4">
    <path clip-path="url(#p52c440dcf9)" d="M 638.887827 51.713467 
L 638.887827 78.186533 
L 787.122495 78.186533 
L 787.122495 51.713467 
L 638.887827 51.713467 
z
" style="fill:#cc8963;stroke:#4c4c4c;stroke-linejoin:miter;stroke-width:1.5;"/>
   </g>
   <g id="patch_5">
    <path clip-path="url(#p52c440dcf9)" d="M 632.493223 78.7268 
L 632.493223 105.199867 
L 788.731027 105.199867 
L 788.731027 78.7268 
L 632.493223 78.7268 
z
" style="fill:#5f9e6e;stroke:#4c4c4c;stroke-linejoin:miter;stroke-width:1.5;"/>
   </g>
   <g id="patch_6">
    <path clip-path="url(#p52c440dcf9)" d="M 695.977598 126.000133 
L 695.977598 152.4732 
L 824.343583 152.4732 
L 824.343583 126.000133 
L 695.977598 126.000133 
z
" style="fill:#5875a4;stroke:#4c4c4c;stroke-linejoin:miter;stroke-width:1.5;"/>
   </g>
   <g id="patch_7">
    <path clip-path="url(#p52c440dcf9)" d="M 719.635442 153.013467 
L 719.635442 179.486533 
L 822.527284 179.486533 
L 822.527284 153.013467 
L 719.635442 153.013467 
z
" style="fill:#cc8963;stroke:#4c4c4c;stroke-linejoin:miter;stroke-width:1.5;"/>
   </g>
   <g id="patch_8">
    <path clip-path="url(#p52c440dcf9)" d="M 719.762635 180.0268 
L 719.762635 206.499867 
L 834.847293 206.499867 
L 834.847293 180.0268 
L 719.762635 180.0268 
z
" style="fill:#5f9e6e;stroke:#4c4c4c;stroke-linejoin:miter;stroke-width:1.5;"/>
   </g>
   <g id="patch_9">
    <path clip-path="url(#p52c440dcf9)" d="M 682.773425 227.300133 
L 682.773425 253.7732 
L 805.474529 253.7732 
L 805.474529 227.300133 
L 682.773425 227.300133 
z
" style="fill:#5875a4;stroke:#4c4c4c;stroke-linejoin:miter;stroke-width:1.5;"/>
   </g>
   <g id="patch_10">
    <path clip-path="url(#p52c440dcf9)" d="M 683.832773 254.313467 
L 683.832773 280.786533 
L 806.491095 280.786533 
L 806.491095 254.313467 
L 683.832773 254.313467 
z
" style="fill:#cc8963;stroke:#4c4c4c;stroke-linejoin:miter;stroke-width:1.5;"/>
   </g>
   <g id="patch_11">
    <path clip-path="url(#p52c440dcf9)" d="M 683.533447 281.3268 
L 683.533447 307.799867 
L 805.899093 307.799867 
L 805.899093 281.3268 
L 683.533447 281.3268 
z
" style="fill:#5f9e6e;stroke:#4c4c4c;stroke-linejoin:miter;stroke-width:1.5;"/>
   </g>
   <g id="patch_12">
    <path clip-path="url(#p52c440dcf9)" d="M 465.315706 64.95 
L 465.315706 64.95 
L 465.315706 64.95 
L 465.315706 64.95 
z
" style="fill:#5875a4;stroke:#4c4c4c;stroke-linejoin:miter;stroke-width:0.75;"/>
   </g>
   <g id="patch_13">
    <path clip-path="url(#p52c440dcf9)" d="M 465.315706 64.95 
L 465.315706 64.95 
L 465.315706 64.95 
L 465.315706 64.95 
z
" style="fill:#cc8963;stroke:#4c4c4c;stroke-linejoin:miter;stroke-width:0.75;"/>
   </g>
   <g id="patch_14">
    <path clip-path="url(#p52c440dcf9)" d="M 465.315706 64.95 
L 465.315706 64.95 
L 465.315706 64.95 
L 465.315706 64.95 
z
" style="fill:#5f9e6e;stroke:#4c4c4c;stroke-linejoin:miter;stroke-width:0.75;"/>
   </g>
   <g id="line2d_8">
    <path clip-path="url(#p52c440dcf9)" d="M 621.891005 37.936667 
L 355.903409 37.936667 
" style="fill:none;stroke:#4c4c4c;stroke-linecap:round;stroke-width:1.5;"/>
   </g>
   <g id="line2d_9">
    <path clip-path="url(#p52c440dcf9)" d="M 799.239108 37.936667 
L 860.471591 37.936667 
" style="fill:none;stroke:#4c4c4c;stroke-linecap:round;stroke-width:1.5;"/>
   </g>
   <g id="line2d_10">
    <path clip-path="url(#p52c440dcf9)" d="M 355.903409 31.3184 
L 355.903409 44.554933 
" style="fill:none;stroke:#4c4c4c;stroke-linecap:round;stroke-width:1.5;"/>
   </g>
   <g id="line2d_11">
    <path clip-path="url(#p52c440dcf9)" d="M 860.471591 31.3184 
L 860.471591 44.554933 
" style="fill:none;stroke:#4c4c4c;stroke-linecap:round;stroke-width:1.5;"/>
   </g>
   <g id="line2d_12">
    <path clip-path="url(#p52c440dcf9)" d="M 638.887827 64.95 
L 416.545214 64.95 
" style="fill:none;stroke:#4c4c4c;stroke-linecap:round;stroke-width:1.5;"/>
   </g>
   <g id="line2d_13">
    <path clip-path="url(#p52c440dcf9)" d="M 787.122495 64.95 
L 860.471591 64.95 
" style="fill:none;stroke:#4c4c4c;stroke-linecap:round;stroke-width:1.5;"/>
   </g>
   <g id="line2d_14">
    <path clip-path="url(#p52c440dcf9)" d="M 416.545214 58.331733 
L 416.545214 71.568267 
" style="fill:none;stroke:#4c4c4c;stroke-linecap:round;stroke-width:1.5;"/>
   </g>
   <g id="line2d_15">
    <path clip-path="url(#p52c440dcf9)" d="M 860.471591 58.331733 
L 860.471591 71.568267 
" style="fill:none;stroke:#4c4c4c;stroke-linecap:round;stroke-width:1.5;"/>
   </g>
   <g id="line2d_16">
    <path clip-path="url(#p52c440dcf9)" d="M 632.493223 91.963333 
L 398.200645 91.963333 
" style="fill:none;stroke:#4c4c4c;stroke-linecap:round;stroke-width:1.5;"/>
   </g>
   <g id="line2d_17">
    <path clip-path="url(#p52c440dcf9)" d="M 788.731027 91.963333 
L 860.471591 91.963333 
" style="fill:none;stroke:#4c4c4c;stroke-linecap:round;stroke-width:1.5;"/>
   </g>
   <g id="line2d_18">
    <path clip-path="url(#p52c440dcf9)" d="M 398.200645 85.345067 
L 398.200645 98.5816 
" style="fill:none;stroke:#4c4c4c;stroke-linecap:round;stroke-width:1.5;"/>
   </g>
   <g id="line2d_19">
    <path clip-path="url(#p52c440dcf9)" d="M 860.471591 85.345067 
L 860.471591 98.5816 
" style="fill:none;stroke:#4c4c4c;stroke-linecap:round;stroke-width:1.5;"/>
   </g>
   <g id="line2d_20">
    <path clip-path="url(#p52c440dcf9)" d="M 695.977598 139.236667 
L 503.454333 139.236667 
" style="fill:none;stroke:#4c4c4c;stroke-linecap:round;stroke-width:1.5;"/>
   </g>
   <g id="line2d_21">
    <path clip-path="url(#p52c440dcf9)" d="M 824.343583 139.236667 
L 860.471591 139.236667 
" style="fill:none;stroke:#4c4c4c;stroke-linecap:round;stroke-width:1.5;"/>
   </g>
   <g id="line2d_22">
    <path clip-path="url(#p52c440dcf9)" d="M 503.454333 132.6184 
L 503.454333 145.854933 
" style="fill:none;stroke:#4c4c4c;stroke-linecap:round;stroke-width:1.5;"/>
   </g>
   <g id="line2d_23">
    <path clip-path="url(#p52c440dcf9)" d="M 860.471591 132.6184 
L 860.471591 145.854933 
" style="fill:none;stroke:#4c4c4c;stroke-linecap:round;stroke-width:1.5;"/>
   </g>
   <g id="line2d_24">
    <path clip-path="url(#p52c440dcf9)" d="M 719.635442 166.25 
L 565.355491 166.25 
" style="fill:none;stroke:#4c4c4c;stroke-linecap:round;stroke-width:1.5;"/>
   </g>
   <g id="line2d_25">
    <path clip-path="url(#p52c440dcf9)" d="M 822.527284 166.25 
L 860.471591 166.25 
" style="fill:none;stroke:#4c4c4c;stroke-linecap:round;stroke-width:1.5;"/>
   </g>
   <g id="line2d_26">
    <path clip-path="url(#p52c440dcf9)" d="M 565.355491 159.631733 
L 565.355491 172.868267 
" style="fill:none;stroke:#4c4c4c;stroke-linecap:round;stroke-width:1.5;"/>
   </g>
   <g id="line2d_27">
    <path clip-path="url(#p52c440dcf9)" d="M 860.471591 159.631733 
L 860.471591 172.868267 
" style="fill:none;stroke:#4c4c4c;stroke-linecap:round;stroke-width:1.5;"/>
   </g>
   <g id="line2d_28">
    <path clip-path="url(#p52c440dcf9)" d="M 719.762635 193.263333 
L 547.160339 193.263333 
" style="fill:none;stroke:#4c4c4c;stroke-linecap:round;stroke-width:1.5;"/>
   </g>
   <g id="line2d_29">
    <path clip-path="url(#p52c440dcf9)" d="M 834.847293 193.263333 
L 860.471591 193.263333 
" style="fill:none;stroke:#4c4c4c;stroke-linecap:round;stroke-width:1.5;"/>
   </g>
   <g id="line2d_30">
    <path clip-path="url(#p52c440dcf9)" d="M 547.160339 186.645067 
L 547.160339 199.8816 
" style="fill:none;stroke:#4c4c4c;stroke-linecap:round;stroke-width:1.5;"/>
   </g>
   <g id="line2d_31">
    <path clip-path="url(#p52c440dcf9)" d="M 860.471591 186.645067 
L 860.471591 199.8816 
" style="fill:none;stroke:#4c4c4c;stroke-linecap:round;stroke-width:1.5;"/>
   </g>
   <g id="line2d_32">
    <path clip-path="url(#p52c440dcf9)" d="M 682.773425 240.536667 
L 498.741377 240.536667 
" style="fill:none;stroke:#4c4c4c;stroke-linecap:round;stroke-width:1.5;"/>
   </g>
   <g id="line2d_33">
    <path clip-path="url(#p52c440dcf9)" d="M 805.474529 240.536667 
L 860.423747 240.536667 
" style="fill:none;stroke:#4c4c4c;stroke-linecap:round;stroke-width:1.5;"/>
   </g>
   <g id="line2d_34">
    <path clip-path="url(#p52c440dcf9)" d="M 498.741377 233.9184 
L 498.741377 247.154933 
" style="fill:none;stroke:#4c4c4c;stroke-linecap:round;stroke-width:1.5;"/>
   </g>
   <g id="line2d_35">
    <path clip-path="url(#p52c440dcf9)" d="M 860.423747 233.9184 
L 860.423747 247.154933 
" style="fill:none;stroke:#4c4c4c;stroke-linecap:round;stroke-width:1.5;"/>
   </g>
   <g id="line2d_36">
    <path clip-path="url(#p52c440dcf9)" d="M 683.832773 267.55 
L 499.888537 267.55 
" style="fill:none;stroke:#4c4c4c;stroke-linecap:round;stroke-width:1.5;"/>
   </g>
   <g id="line2d_37">
    <path clip-path="url(#p52c440dcf9)" d="M 806.491095 267.55 
L 860.387162 267.55 
" style="fill:none;stroke:#4c4c4c;stroke-linecap:round;stroke-width:1.5;"/>
   </g>
   <g id="line2d_38">
    <path clip-path="url(#p52c440dcf9)" d="M 499.888537 260.931733 
L 499.888537 274.168267 
" style="fill:none;stroke:#4c4c4c;stroke-linecap:round;stroke-width:1.5;"/>
   </g>
   <g id="line2d_39">
    <path clip-path="url(#p52c440dcf9)" d="M 860.387162 260.931733 
L 860.387162 274.168267 
" style="fill:none;stroke:#4c4c4c;stroke-linecap:round;stroke-width:1.5;"/>
   </g>
   <g id="line2d_40">
    <path clip-path="url(#p52c440dcf9)" d="M 683.533447 294.563333 
L 500.008256 294.563333 
" style="fill:none;stroke:#4c4c4c;stroke-linecap:round;stroke-width:1.5;"/>
   </g>
   <g id="line2d_41">
    <path clip-path="url(#p52c440dcf9)" d="M 805.899093 294.563333 
L 860.38852 294.563333 
" style="fill:none;stroke:#4c4c4c;stroke-linecap:round;stroke-width:1.5;"/>
   </g>
   <g id="line2d_42">
    <path clip-path="url(#p52c440dcf9)" d="M 500.008256 287.945067 
L 500.008256 301.1816 
" style="fill:none;stroke:#4c4c4c;stroke-linecap:round;stroke-width:1.5;"/>
   </g>
   <g id="line2d_43">
    <path clip-path="url(#p52c440dcf9)" d="M 860.38852 287.945067 
L 860.38852 301.1816 
" style="fill:none;stroke:#4c4c4c;stroke-linecap:round;stroke-width:1.5;"/>
   </g>
   <g id="line2d_44">
    <path clip-path="url(#p52c440dcf9)" d="M 729.849018 24.700133 
L 729.849018 51.1732 
" style="fill:none;stroke:#4c4c4c;stroke-linecap:round;stroke-width:1.5;"/>
   </g>
   <g id="line2d_45">
    <path clip-path="url(#p52c440dcf9)" d="M 724.137645 51.713467 
L 724.137645 78.186533 
" style="fill:none;stroke:#4c4c4c;stroke-linecap:round;stroke-width:1.5;"/>
   </g>
   <g id="line2d_46">
    <path clip-path="url(#p52c440dcf9)" d="M 719.876758 78.7268 
L 719.876758 105.199867 
" style="fill:none;stroke:#4c4c4c;stroke-linecap:round;stroke-width:1.5;"/>
   </g>
   <g id="line2d_47">
    <path clip-path="url(#p52c440dcf9)" d="M 781.837588 126.000133 
L 781.837588 152.4732 
" style="fill:none;stroke:#4c4c4c;stroke-linecap:round;stroke-width:1.5;"/>
   </g>
   <g id="line2d_48">
    <path clip-path="url(#p52c440dcf9)" d="M 783.737395 153.013467 
L 783.737395 179.486533 
" style="fill:none;stroke:#4c4c4c;stroke-linecap:round;stroke-width:1.5;"/>
   </g>
   <g id="line2d_49">
    <path clip-path="url(#p52c440dcf9)" d="M 793.048425 180.0268 
L 793.048425 206.499867 
" style="fill:none;stroke:#4c4c4c;stroke-linecap:round;stroke-width:1.5;"/>
   </g>
   <g id="line2d_50">
    <path clip-path="url(#p52c440dcf9)" d="M 751.378113 227.300133 
L 751.378113 253.7732 
" style="fill:none;stroke:#4c4c4c;stroke-linecap:round;stroke-width:1.5;"/>
   </g>
   <g id="line2d_51">
    <path clip-path="url(#p52c440dcf9)" d="M 752.183714 254.313467 
L 752.183714 280.786533 
" style="fill:none;stroke:#4c4c4c;stroke-linecap:round;stroke-width:1.5;"/>
   </g>
   <g id="line2d_52">
    <path clip-path="url(#p52c440dcf9)" d="M 752.017349 281.3268 
L 752.017349 307.799867 
" style="fill:none;stroke:#4c4c4c;stroke-linecap:round;stroke-width:1.5;"/>
   </g>
   <g id="patch_15">
    <path d="M 330.675 318.2 
L 330.675 14.3 
" style="fill:none;stroke:#cccccc;stroke-linecap:square;stroke-linejoin:miter;stroke-width:0.8;"/>
   </g>
  </g>
 </g>
 <defs>
  <clipPath id="p52c440dcf9">
   <rect height="303.9" width="555.025" x="330.675" y="14.3"/>
  </clipPath>
 </defs>
</svg>
